<svg width="6850" height="960" viewBox="1500 980 6850 960" fill="none" xmlns="http://www.w3.org/2000/svg">
<path d="M8239.48 1182.34C8254.69 1193.55 8258.43 1215.03 8248.82 1231.3C8241.02 1244.5 8234.72 1256.8 8229.92 1268.2C8217.32 1295.8 8201.72 1327 8183.12 1361.8C8165.12 1396 8144.42 1430.8 8121.02 1466.2C8098.22 1501.6 8073.62 1534.9 8047.22 1566.1C8013.62 1605.1 7976.12 1643.5 7934.72 1681.3C7893.92 1718.5 7850.72 1753 7805.12 1784.8C7775.36 1805.43 7745.34 1824.1 7715.06 1840.79C7687.57 1855.95 7653.62 1849.61 7631.86 1826.99C7595.55 1789.24 7609.83 1726.08 7655.97 1701.3C7669.79 1693.88 7683.51 1686.01 7697.12 1677.7C7743.32 1649.5 7785.92 1619.2 7824.92 1586.8C7863.92 1554.4 7896.62 1523.5 7923.02 1494.1C7942.82 1471.9 7960.82 1448.8 7977.02 1424.8C7993.82 1400.8 8008.52 1377.4 8021.12 1354.6C8027.6 1342.57 8033.21 1331.09 8037.94 1320.17C8044.15 1305.83 8033.15 1290.7 8017.52 1290.7C8003.12 1290.7 7986.62 1290.7 7968.02 1290.7C7949.42 1290.7 7929.92 1290.7 7909.52 1290.7C7889.72 1290.7 7870.52 1290.7 7851.92 1290.7C7833.32 1290.7 7816.52 1290.7 7801.52 1290.7C7787.12 1290.7 7776.32 1290.7 7769.12 1290.7C7755.92 1290.7 7741.82 1291.3 7726.82 1292.5C7712.42 1293.1 7698.62 1294 7685.42 1295.2C7668.41 1296.82 7653.92 1283.37 7653.92 1266.28V1181.07C7653.92 1160.82 7671.54 1145.02 7691.72 1146.7C7706.72 1147.9 7721.12 1148.8 7734.92 1149.4C7749.32 1150 7760.72 1150.3 7769.12 1150.3C7778.12 1150.3 7790.72 1150.3 7806.92 1150.3C7823.12 1150.3 7841.12 1150.3 7860.92 1150.3C7881.32 1150.3 7902.02 1150.3 7923.02 1150.3C7944.62 1150.3 7965.02 1150.3 7984.22 1150.3C8004.02 1150.3 8021.42 1150.3 8036.42 1150.3C8051.42 1150.3 8062.52 1150.3 8069.72 1150.3C8092.52 1150.3 8113.52 1149.1 8132.72 1146.7C8135.16 1146.33 8137.52 1145.96 8139.8 1145.58C8163.85 1141.61 8189.47 1145.46 8209.08 1159.93L8239.48 1182.34ZM8011.91 1522.3C8038.78 1495.89 8081.19 1493.51 8109.28 1518.6C8116.93 1525.43 8124.75 1532.57 8132.72 1540C8159.12 1564.6 8185.22 1590.4 8211.02 1617.4C8237.42 1643.8 8261.72 1669.3 8283.92 1693.9C8285.38 1695.52 8286.83 1697.12 8288.25 1698.71C8316.92 1730.6 8313.02 1779.36 8280.67 1807.52C8245.01 1838.56 8190.34 1831.46 8160.36 1794.91C8153.17 1786.14 8145.76 1777.37 8138.12 1768.6C8110.52 1735.6 8081.12 1702.9 8049.92 1670.5C8037.69 1657.55 8025.32 1644.84 8012.8 1632.37C7982.35 1602.03 7981.25 1552.42 8011.91 1522.3Z" fill="#438247"/>
<path fill-rule="evenodd" clip-rule="evenodd" d="M6675.62 1362.7C6651.72 1360.93 6630.62 1379.46 6630.62 1403.43V1455.31C6630.62 1479.49 6651.46 1498.53 6675.62 1497.7C6693.03 1497.1 6708.32 1496.8 6721.52 1496.8H6769.23H6853.82H6956.56C6954.34 1522.05 6950.7 1546.35 6945.62 1569.7C6937.23 1610.5 6921.62 1647.7 6898.82 1681.3C6880.82 1706.5 6857.13 1730.8 6827.73 1754.2C6793.32 1781.43 6787.09 1839.66 6822.72 1865.26L6836.02 1874.81C6855.27 1888.64 6880.85 1891.04 6900.89 1878.38C6915.91 1868.9 6930.22 1858.41 6943.82 1846.9C6967.82 1827.1 6988.83 1806.1 7006.83 1783.9C7025.43 1761.7 7039.82 1740.1 7050.02 1719.1C7068.62 1681.9 7083.62 1640.5 7095.02 1594.9C7102.38 1565.08 7107.37 1532.38 7109.98 1496.8H7179.62H7264.23H7311.02C7324.82 1496.8 7340.12 1497.1 7356.92 1497.7C7380.08 1497.7 7400.12 1479.4 7400.12 1456.25V1405.34C7400.12 1380.87 7377.74 1362.02 7353.33 1363.6C7334.73 1364.2 7320.62 1364.5 7311.02 1364.5H7264.23H7179.62H7073.42H6960.02H6853.82H6769.23H6721.52C6707.72 1364.5 6692.43 1363.9 6675.62 1362.7Z" fill="#438247"/>
<path fill-rule="evenodd" clip-rule="evenodd" d="M5862.02 1691.2C5859.59 1691.86 5857.16 1692.51 5854.71 1693.16C5800.21 1707.51 5771.02 1770.77 5801.53 1818.16C5818.05 1843.83 5848.27 1857.65 5878.03 1850.87C5899.39 1846.01 5920.76 1840.18 5942.12 1833.4C5979.92 1822 6016.52 1808.5 6051.92 1792.9C6087.32 1776.7 6120.32 1759.6 6150.92 1741.6C6201.32 1712.2 6248.42 1679.2 6292.22 1642.6C6336.62 1606 6376.52 1567.3 6411.92 1526.5C6438.07 1495.92 6461.11 1465.01 6481.04 1433.78C6494.02 1413.43 6493.95 1387.63 6482.32 1366.48C6454.87 1316.55 6379.32 1317.48 6345.4 1363.26C6342.43 1367.26 6339.4 1371.28 6336.32 1375.3C6303.32 1418.5 6264.62 1460.2 6220.22 1500.4C6175.82 1540 6126.62 1575.4 6072.62 1606.6C6043.22 1623.4 6010.82 1639 5975.42 1653.4C5940.02 1667.8 5902.22 1680.4 5862.02 1691.2Z" fill="#438247"/>
<path d="M5204.38 1818.5C5188.02 1805.07 5181.08 1783.38 5183 1762.3C5184.8 1749.1 5185.7 1735.6 5185.7 1721.8C5185.7 1714.6 5185.7 1701.4 5185.7 1682.2C5185.7 1662.4 5185.7 1639 5185.7 1612C5185.7 1584.4 5185.7 1554.7 5185.7 1522.9C5185.7 1491.1 5185.7 1459 5185.7 1426.6C5185.7 1394.2 5185.7 1363.6 5185.7 1334.8C5185.7 1305.4 5185.7 1279.3 5185.7 1256.5C5185.7 1233.7 5185.7 1216.6 5185.7 1205.2C5185.7 1183 5184.2 1163.5 5181.2 1146.7C5179.3 1133.4 5189.62 1121.5 5203.05 1121.5H5313.25C5327.18 1121.5 5337.9 1133.8 5336 1147.6C5333.6 1164.4 5332.4 1183.9 5332.4 1206.1C5332.4 1217.5 5332.4 1232.8 5332.4 1252C5332.4 1271.2 5332.4 1292.8 5332.4 1316.8C5332.4 1340.8 5332.4 1366 5332.4 1392.4C5332.4 1418.8 5332.4 1444.9 5332.4 1470.7C5332.4 1496.5 5332.4 1521.1 5332.4 1544.5C5332.4 1567.9 5332.4 1588.6 5332.4 1606.6C5332.4 1626.69 5352.81 1640.03 5370.15 1629.88C5380.6 1623.75 5391.12 1616.9 5401.7 1609.3C5425.1 1592.5 5447.9 1573 5470.1 1550.8C5503.27 1517.63 5560.61 1517.94 5587.35 1556.47C5604.29 1580.88 5603.61 1613.77 5583.38 1635.53C5566.49 1653.68 5547.63 1671.94 5526.8 1690.3C5492 1721.5 5455.7 1750.3 5417.9 1776.7C5380.7 1802.5 5345.3 1824.1 5311.7 1841.5C5300.9 1847.5 5292.2 1852.9 5285.6 1857.7C5275.7 1865.8 5261.55 1865.49 5251.67 1857.37L5204.38 1818.5ZM4845.48 1836.29C4803.69 1808.62 4803.6 1746.9 4834.59 1707.51C4842.12 1697.95 4849.05 1688.01 4855.4 1677.7C4880 1638.7 4898 1601.5 4909.4 1566.1C4916 1547.5 4920.8 1524.1 4923.8 1495.9C4927.4 1467.7 4930.1 1437.4 4931.9 1405C4933.7 1372 4934.6 1339 4934.6 1306C4935.2 1273 4935.5 1242.4 4935.5 1214.2C4935.5 1193.2 4934.6 1175.5 4932.8 1161.1C4930.26 1140.8 4945.42 1121.5 4965.87 1121.5H5071.29C5078.99 1121.5 5084.96 1128.25 5084 1135.9C5082.8 1144.9 5081.6 1156.3 5080.4 1170.1C5079.2 1183.9 5078.6 1198 5078.6 1212.4C5078.6 1240 5078.3 1271.5 5077.7 1306.9C5077.1 1342.3 5075.9 1378.3 5074.1 1414.9C5072.3 1451.5 5069.6 1486.3 5066 1519.3C5063 1551.7 5058.5 1579.3 5052.5 1602.1C5038.7 1654.3 5018 1702.6 4990.4 1747C4972.88 1775.8 4952.85 1802.71 4930.28 1827.72C4908.58 1851.78 4872.49 1854.18 4845.48 1836.29Z" fill="#438247"/>
<path d="M3983.3 1165.9C3983.3 1138.29 4007.95 1117.08 4035.5 1118.8C4055.3 1120 4072.7 1120.6 4087.7 1120.6C4099.7 1120.6 4117.7 1120.6 4141.7 1120.6C4166.3 1120.6 4193.6 1120.6 4223.6 1120.6C4254.2 1120.6 4284.5 1120.6 4314.5 1120.6C4345.1 1120.6 4372.1 1120.6 4395.5 1120.6C4419.5 1120.6 4436.9 1120.6 4447.7 1120.6C4464.5 1120.6 4481.9 1120 4499.9 1118.8C4527.54 1116.96 4552.1 1138.19 4552.1 1165.89V1200.63C4552.1 1228.87 4528.13 1251.14 4499.9 1250.2C4482.5 1249.6 4465.1 1249.3 4447.7 1249.3C4436.9 1249.3 4419.5 1249.3 4395.5 1249.3C4372.1 1249.3 4345.1 1249.3 4314.5 1249.3C4284.5 1249.3 4254.2 1249.3 4223.6 1249.3C4193.6 1249.3 4166.3 1249.3 4141.7 1249.3C4117.7 1249.3 4099.7 1249.3 4087.7 1249.3C4072.1 1249.3 4054.4 1249.6 4034.6 1250.2C4006.93 1251.06 3983.3 1229.21 3983.3 1201.52V1165.9ZM3879.8 1390.83C3879.8 1366.86 3900.89 1348.33 3924.8 1350.1C3941.6 1351.3 3956.9 1351.9 3970.7 1351.9C3979.1 1351.9 3995 1351.9 4018.4 1351.9C4041.8 1351.9 4070 1351.9 4103 1351.9C4136 1351.9 4171.4 1351.9 4209.2 1351.9C4247 1351.9 4284.8 1351.9 4322.6 1351.9C4360.4 1351.9 4395.8 1351.9 4428.8 1351.9C4461.8 1351.9 4490 1351.9 4513.4 1351.9C4536.8 1351.9 4552.4 1351.9 4560.2 1351.9C4569.8 1351.9 4583.9 1351.6 4602.5 1351C4626.92 1349.42 4649.3 1368.27 4649.3 1392.74V1443.65C4649.3 1466.8 4629.26 1485.1 4606.1 1485.1C4589.3 1484.5 4574 1484.2 4560.2 1484.2C4552.4 1484.2 4536.8 1484.2 4513.4 1484.2C4490 1484.2 4461.8 1484.2 4428.8 1484.2C4395.8 1484.2 4360.4 1484.2 4322.6 1484.2C4284.8 1484.2 4247 1484.2 4209.2 1484.2C4171.4 1484.2 4136 1484.2 4103 1484.2C4070 1484.2 4041.8 1484.2 4018.4 1484.2C3995 1484.2 3979.1 1484.2 3970.7 1484.2C3957.5 1484.2 3942.2 1484.5 3924.8 1485.1C3900.64 1485.93 3879.8 1466.89 3879.8 1442.71V1390.83ZM4284.35 1423.45C4326.78 1423.2 4361.86 1457.62 4357.83 1499.85C4355.01 1529.42 4350.47 1556.9 4344.2 1582.3C4332.8 1627.9 4317.8 1669.3 4299.2 1706.5C4289 1727.5 4274.6 1749.1 4256 1771.3C4238 1793.5 4217 1814.5 4193 1834.3C4179.4 1845.81 4165.09 1856.3 4150.07 1865.78C4130.03 1878.44 4104.45 1876.04 4085.19 1862.21L4071.9 1852.66C4036.26 1827.06 4042.5 1768.83 4076.9 1741.6C4106.3 1718.2 4130 1693.9 4148 1668.7C4170.8 1635.1 4186.4 1597.9 4194.8 1557.1C4198.82 1538.6 4201.95 1519.5 4204.17 1499.8C4208.89 1457.99 4242.28 1423.7 4284.35 1423.45Z" fill="#438247"/>
<path d="M3117.46 1147.72C3128.59 1119.08 3157.78 1101.61 3188.11 1106.56C3199.04 1108.34 3210.61 1110.32 3222.8 1112.5C3257 1117.9 3293.3 1124.5 3331.7 1132.3C3370.7 1139.5 3409.4 1147.6 3447.8 1156.6C3486.2 1165 3521.9 1173.7 3554.9 1182.7C3558.39 1183.59 3561.82 1184.47 3565.19 1185.35C3605.36 1195.84 3625.29 1239.41 3609.52 1277.82C3594.66 1314.02 3553.51 1331.96 3515.77 1321.63C3512.09 1320.62 3508.34 1319.61 3504.5 1318.6C3472.7 1309.6 3437.9 1300.6 3400.1 1291.6C3362.9 1282 3325.1 1273.3 3286.7 1265.5C3248.3 1257.1 3211.7 1249.6 3176.9 1243C3175.16 1242.67 3173.44 1242.35 3171.72 1242.02C3128.56 1233.96 3101.54 1188.63 3117.46 1147.72ZM3075.82 1396.51C3087.51 1365.83 3119.18 1347.54 3151.42 1353.71C3169.62 1357.2 3188.91 1361.09 3209.3 1365.4C3252.5 1373.8 3296.9 1383.1 3342.5 1393.3C3388.1 1403.5 3431.3 1414 3472.1 1424.8C3482.96 1427.52 3493.38 1430.21 3503.35 1432.88C3543.08 1443.54 3563.19 1486.47 3548.3 1524.82C3533.99 1561.69 3492.67 1580.32 3454.71 1569.24C3445.1 1566.44 3435 1563.59 3424.4 1560.7C3384.8 1549.3 3342.2 1538.2 3296.6 1527.4C3251.6 1516.6 3206.9 1506.7 3162.5 1497.7C3151.12 1495.36 3140.07 1493.15 3129.34 1491.05C3086.26 1482.64 3060.19 1437.53 3075.82 1396.51ZM3029.73 1652.51C3042.12 1621.42 3074.35 1602.93 3107.28 1608.88C3123.08 1611.73 3139.68 1614.87 3157.1 1618.3C3197.3 1626.1 3239 1634.8 3282.2 1644.4C3325.4 1654 3367.7 1663.9 3409.1 1674.1C3451.1 1684.3 3490.1 1694.5 3526.1 1704.7C3531.55 1706.24 3536.87 1707.78 3542.06 1709.29C3583 1721.26 3602.43 1766.54 3585.23 1805.58C3569.28 1841.76 3527.61 1859 3489.9 1847.11C3482.17 1844.67 3474.14 1842.2 3465.8 1839.7C3429.8 1829.5 3390.5 1819.3 3347.9 1809.1C3305.9 1798.3 3263.3 1788.4 3220.1 1779.4C3176.9 1769.8 3135.8 1761.4 3096.8 1754.2C3093.09 1753.5 3089.43 1752.82 3085.81 1752.16C3040.13 1743.73 3012.52 1695.65 3029.73 1652.51Z" fill="#438247"/>
<path d="M5939.7 1099.2C6038.56 1099.2 6118.7 1179.34 6118.7 1278.2C6118.7 1377.06 6038.56 1457.2 5939.7 1457.2C5840.84 1457.2 5760.7 1377.06 5760.7 1278.2C5760.7 1179.34 5840.84 1099.2 5939.7 1099.2ZM5879.26 1148.64C5835.6 1148.64 5800.22 1184.02 5800.22 1227.68C5800.22 1271.33 5835.6 1306.71 5879.26 1306.71C5922.91 1306.71 5958.3 1271.33 5958.3 1227.68C5958.3 1184.02 5922.91 1148.64 5879.26 1148.64Z" fill="#438247"/>
<rect x="6723.7" y="1260.2" width="141" height="577" rx="43" transform="rotate(-90 6723.7 1260.2)" fill="#438247"/>
<rect x="7329.12" y="1087.13" width="69" height="125" rx="27" transform="rotate(-15 7329.12 1087.13)" fill="#438247"/>
<rect x="7410.27" y="1065.39" width="69" height="125" rx="27" transform="rotate(-15 7410.27 1065.39)" fill="#438247"/>
<rect x="1548" y="1073.5" width="912" height="195" rx="30" fill="#438247"/>
<rect x="1548" y="1723" width="912" height="195" rx="30" fill="#438247"/>
<path d="M2004.18 1345.57C2087.12 1345.57 2154.35 1412.81 2154.35 1495.75C2154.35 1578.69 2087.12 1645.93 2004.18 1645.93C1921.24 1645.93 1854 1578.69 1854 1495.75C1854 1412.81 1921.24 1345.57 2004.18 1345.57ZM1953.47 1387.05C1916.84 1387.05 1887.16 1416.74 1887.16 1453.36C1887.16 1489.98 1916.84 1519.67 1953.47 1519.67C1990.09 1519.67 2019.78 1489.98 2019.78 1453.36C2019.78 1416.74 1990.09 1387.05 1953.47 1387.05Z" fill="#438247"/>
<rect x="2151" y="1006" width="187.5" height="202.5" rx="30" fill="#438247"/>
</svg>
