<svg width="1024" height="1024" viewBox="0 0 1024 1024" fill="none" xmlns="http://www.w3.org/2000/svg">
<rect width="1024" height="1024" fill="#438247"/>
<rect x="208.484" y="253.414" width="607.027" height="129.792" rx="19.968" fill="white"/>
<rect x="208.484" y="685.721" width="607.027" height="129.792" rx="19.968" fill="white"/>
<path d="M512.121 434.506C567.326 434.506 612.079 479.258 612.079 534.463C612.079 589.668 567.326 634.421 512.121 634.421C456.916 634.421 412.164 589.668 412.164 534.463C412.164 479.259 456.916 434.507 512.121 434.506ZM478.37 462.113C453.994 462.113 434.234 481.874 434.233 506.25C434.233 530.626 453.994 550.387 478.37 550.387C502.746 550.387 522.508 530.626 522.508 506.25C522.508 481.873 502.746 462.113 478.37 462.113Z" fill="white"/>
<rect x="609.844" y="208.486" width="124.8" height="134.784" rx="19.968" fill="white"/>
</svg>
