<svg width="1365" height="1061" viewBox="0 0 1365 1061" fill="none" xmlns="http://www.w3.org/2000/svg">
<rect width="1365" height="1061" fill="#438247"/>
<path d="M815.197 620.956C813.426 617.12 810.442 614.079 806.837 612.076C803.232 610.074 799.021 609.057 794.579 609.057C786.789 609.057 778.254 612.18 770.695 618.855C764.399 624.412 758.843 632.444 754.826 643.136V584.341C754.826 579.185 750.631 575 745.48 575H614.366C609.21 575 605.019 579.185 605.019 584.341V640.907L585.238 633.456C582.229 632.32 579.117 631.787 576.061 631.787C570.782 631.787 565.678 633.384 561.395 636.306C557.107 639.213 553.636 643.449 551.674 648.657C550.539 651.665 550 654.783 550 657.833C550 663.102 551.608 668.207 554.519 672.5C557.425 676.772 561.668 680.254 566.874 682.216L584.427 688.82C583.348 689.344 582.306 689.944 581.31 690.622C577.258 693.381 573.951 697.401 572.103 702.336C571.018 705.176 570.51 708.129 570.51 711.025C570.51 716.028 572.02 720.855 574.794 724.927C577.556 728.979 581.572 732.266 586.512 734.14L587.812 734.628C587.333 734.905 586.851 735.208 586.399 735.521C582.322 738.269 579.03 742.28 577.176 747.235C576.097 750.075 575.589 753.023 575.589 755.919C575.589 760.931 577.104 765.749 579.878 769.806C582.62 773.883 586.636 777.17 591.565 779.018L592.859 779.511C592.356 779.794 591.878 780.097 591.401 780.425C587.344 783.167 584.037 787.188 582.188 792.118C581.104 794.979 580.602 797.926 580.602 800.828C580.602 805.814 582.117 810.662 584.879 814.708C587.642 818.765 591.663 822.072 596.598 823.921L613.452 830.269C616.292 831.337 619.244 831.861 622.14 831.861C626.187 831.861 630.105 830.844 633.608 829.016C638.944 832.662 645.106 836.103 652.218 839.009C663.86 843.755 677.947 847.056 694.744 847.446C695.807 847.472 696.849 847.482 697.897 847.482C714.248 847.492 727.908 844.371 739.257 838.691C747.762 834.439 754.93 828.759 760.928 822.058C769.945 812.008 776.35 799.714 781.181 786.27C785.999 772.856 789.27 758.266 791.914 743.431C791.981 743.123 792.326 741.592 792.875 739.102C795.052 729.298 800.511 704.732 805.595 682.013C808.132 670.659 810.581 659.766 812.482 651.426C813.421 647.257 814.233 643.724 814.849 641.099C815.152 639.79 815.408 638.701 815.609 637.879C815.799 637.068 815.948 636.483 815.989 636.344C816.667 633.966 817 631.645 817 629.406C817.005 626.379 816.378 623.508 815.197 620.956ZM570.161 673.464C566.802 672.2 564.122 669.993 562.247 667.241C560.373 664.488 559.346 661.201 559.346 657.832C559.346 655.876 559.684 653.899 560.419 651.942C561.688 648.583 563.89 645.898 566.648 644.023C569.39 642.159 572.687 641.122 576.061 641.122C578.007 641.122 579.99 641.461 581.942 642.196L605.02 650.885V686.59L570.161 673.464ZM582.527 719.672C580.806 717.13 579.857 714.126 579.857 711.024C579.857 709.227 580.175 707.419 580.842 705.622C582.003 702.541 584.036 700.07 586.563 698.35C589.084 696.635 592.109 695.68 595.195 695.68C596.987 695.68 598.8 696.004 600.592 696.666H600.613L605.019 698.34L617.467 703.023C619.768 703.886 621.709 705.232 623.281 706.916C623.799 707.471 624.287 708.087 624.739 708.744C626.454 711.261 627.389 714.29 627.389 717.372C627.389 719.169 627.07 720.987 626.398 722.794C625.673 724.741 624.605 726.415 623.281 727.837C622.489 728.68 621.637 729.408 620.677 730.06C618.156 731.781 615.151 732.715 612.049 732.715C610.252 732.715 608.439 732.397 606.647 731.719L605.019 731.102L589.798 725.392C586.706 724.216 584.242 722.198 582.527 719.672ZM587.585 764.559C585.874 762.028 584.94 759.008 584.94 755.916C584.94 754.124 585.248 752.312 585.926 750.525C587.082 747.423 589.1 744.979 591.647 743.233C594.163 741.518 597.193 740.573 600.274 740.573C601.846 740.573 603.437 740.809 605.019 741.348C605.245 741.405 605.45 741.497 605.676 741.569L622.531 747.921C622.792 748.014 623.034 748.112 623.281 748.225C626.023 749.421 628.231 751.306 629.797 753.622C631.518 756.163 632.468 759.173 632.468 762.275C632.468 764.072 632.155 765.88 631.487 767.677C631.487 767.677 631.461 767.708 631.461 767.728C630.305 770.799 628.262 773.244 625.766 774.948C623.239 776.664 620.209 777.613 617.129 777.613C615.336 777.613 613.523 777.3 611.731 776.633L605.02 774.106L594.878 770.27C591.775 769.109 589.325 767.091 587.585 764.559ZM636.694 811.943C636.632 812.148 636.561 812.374 636.488 812.58C635.328 815.661 633.304 818.126 630.778 819.841C628.246 821.561 625.242 822.522 622.14 822.522C620.343 822.522 618.535 822.204 616.738 821.526L599.884 815.174C596.782 814.019 594.333 811.975 592.612 809.453C590.897 806.937 589.942 803.912 589.942 800.826C589.942 799.029 590.261 797.195 590.938 795.423C592.093 792.327 594.127 789.852 596.648 788.137C599.093 786.468 602.03 785.539 605.019 785.487H605.286C607.073 785.487 608.891 785.785 610.683 786.468L611.417 786.741L627.532 792.81C630.634 793.981 633.089 796.009 634.824 798.531C636.544 801.068 637.485 804.077 637.485 807.184C637.485 808.749 637.238 810.351 636.694 811.943ZM625.838 739.176L624.497 738.672C624.985 738.395 625.457 738.092 625.93 737.779C630.002 735.037 633.289 731.01 635.143 726.081C636.227 723.225 636.735 720.267 636.735 717.372C636.735 712.369 635.22 707.553 632.452 703.496C630.192 700.152 627.07 697.323 623.281 695.402V603.028H736.935V766.793H641.357C641.634 765.283 641.808 763.774 641.808 762.274C641.808 757.268 640.299 752.445 637.536 748.368C634.773 744.321 630.752 741.024 625.838 739.176ZM686.465 785.974C686.465 789.584 683.538 792.521 679.923 792.521C676.312 792.521 673.386 789.584 673.386 785.974C673.386 782.369 676.312 779.437 679.923 779.437C683.538 779.437 686.465 782.369 686.465 785.974ZM807.007 633.784C806.857 634.287 806.688 634.991 806.426 636.069C805.481 640.033 803.53 648.568 801.136 659.188C793.968 691.027 782.783 741.477 782.783 741.477L782.762 741.569L782.742 741.672C780.43 754.654 777.653 767.277 773.857 778.821C771.018 787.489 767.603 795.547 763.423 802.716C757.137 813.485 749.187 822.235 738.686 828.382C728.164 834.519 714.982 838.134 697.895 838.144C696.93 838.144 695.954 838.124 694.958 838.103C679.265 837.733 666.344 834.683 655.75 830.359C650.302 828.13 645.474 825.563 641.202 822.841C642.875 820.797 644.262 818.466 645.228 815.867C645.721 814.583 646.091 813.253 646.337 811.944C646.527 811.025 646.65 810.105 646.717 809.191L745.479 810.074C750.63 810.074 754.826 805.889 754.826 800.738V676.073C756.52 670.106 758.708 662.413 761.542 652.46C765.178 639.694 770.868 631.17 776.881 625.85C782.9 620.534 789.294 618.398 794.578 618.398C798.609 618.398 801.947 619.635 804.16 621.53C805.264 622.48 806.117 623.579 806.713 624.873C807.309 626.162 807.652 627.647 807.658 629.402C807.658 630.713 807.463 632.166 807.007 633.784Z" fill="white"/>
<rect width="250" height="250" rx="125" transform="matrix(-0.994497 -0.104769 -0.104769 0.994497 820.816 238.192)" fill="white"/>
<path d="M756.062 411.212C759.351 406.245 755.329 399.701 749.413 400.393L674.004 409.214C670.164 409.663 667.416 413.14 667.865 416.98L678.305 506.239C679.063 512.718 687.491 514.73 691.094 509.291L756.062 411.212Z" fill="white"/>
<rect width="250" height="250" rx="125" transform="matrix(-1 0 0 1 428 450)" fill="white"/>
<path d="M310.524 663.184C304.786 661.585 303.54 654.005 308.465 650.654L371.231 607.938C374.427 605.763 378.782 606.591 380.957 609.787L431.518 684.082C435.188 689.475 430.136 696.514 423.852 694.763L310.524 663.184Z" fill="white"/>
<rect x="936" y="445" width="250" height="250" rx="125" fill="white"/>
<path d="M1056.76 667.184C1062.5 665.585 1063.74 658.005 1058.82 654.654L996.051 611.938C992.855 609.763 988.5 610.591 986.325 613.787L935.764 688.082C932.094 693.475 937.146 700.515 943.43 698.763L1056.76 667.184Z" fill="white"/>
<rect x="667" y="671.16" width="29.184" height="6.24" rx="0.96" fill="white"/>
<rect x="667" y="691.944" width="29.184" height="6.24" rx="0.96" fill="white"/>
<path d="M681.598 679.866C684.252 679.866 686.404 682.018 686.404 684.672C686.404 687.326 684.252 689.478 681.598 689.478C678.944 689.478 676.792 687.326 676.792 684.672C676.792 682.018 678.944 679.866 681.598 679.866ZM679.975 681.193C678.803 681.194 677.853 682.144 677.853 683.315C677.853 684.487 678.803 685.437 679.975 685.438C681.147 685.438 682.097 684.487 682.097 683.315C682.097 682.144 681.147 681.193 679.975 681.193Z" fill="white"/>
<rect x="686.296" y="669" width="6" height="6.48" rx="0.96" fill="white"/>
<path d="M726.301 276L719.499 302.354H613L632.815 371.117H701.754L699.269 380.747H637.643V390.885H707.121L734.152 286.137H752.528V276H726.301ZM691.708 360.98V341.552H709.384L704.37 360.98H691.708ZM716.884 312.491L712 331.415H691.708V312.491H716.884ZM681.571 341.552V360.98H661.566V341.552H681.571ZM681.571 312.491V331.415H661.566V312.491H681.571ZM651.429 312.491V331.415H631.925L626.471 312.491H651.429ZM651.429 341.552V360.98H640.444L634.845 341.552H651.429Z" fill="#438247"/>
<path d="M647.325 395.161C639.808 395.161 633.692 401.277 633.692 408.794C633.692 416.311 639.808 422.428 647.325 422.428C654.843 422.428 660.959 416.311 660.959 408.794C660.959 401.277 654.843 395.161 647.325 395.161ZM647.325 412.291C645.397 412.291 643.828 410.723 643.828 408.794C643.828 406.866 645.397 405.298 647.325 405.298C649.253 405.298 650.822 406.866 650.822 408.794C650.822 410.723 649.253 412.291 647.325 412.291Z" fill="#438247"/>
<path d="M695.288 395.731C687.77 395.731 681.654 401.847 681.654 409.366C681.654 416.885 687.77 423 695.288 423C702.805 423 708.921 416.884 708.921 409.366C708.921 401.847 702.805 395.731 695.288 395.731ZM695.288 412.863C693.359 412.863 691.791 411.295 691.791 409.366C691.791 407.438 693.359 405.868 695.288 405.868C697.216 405.868 698.784 407.438 698.784 409.366C698.784 411.295 697.216 412.863 695.288 412.863Z" fill="#438247"/>
<path d="M1107.28 615.618V523.385H1015.72V615.618H1107.28V615.618ZM1044.73 584.873C1047.54 583.877 1052.34 580.333 1052.34 578.23C1052.34 576.836 1052.34 575.093 1052.34 572.706C1050.55 570.713 1049.19 566.672 1048.38 562.092C1046.5 561.419 1045.42 560.34 1044.07 555.624C1042.7 550.801 1045.94 550.77 1046.2 550.773C1045.75 547.689 1045.13 541.595 1046.74 538.54C1046.74 538.54 1045.64 536.552 1045.64 533.906C1050.27 534.569 1065.04 525.089 1069.45 532.806C1075.85 532.143 1079.67 541.168 1076.77 550.773C1076.77 550.773 1080.36 550.602 1078.93 555.624C1077.58 560.34 1076.5 561.42 1074.62 562.093C1073.8 566.673 1072.45 570.713 1070.66 572.706C1070.66 575.093 1070.66 576.836 1070.66 578.231C1070.66 580.334 1075.17 583.716 1078.27 584.873C1084.05 587.035 1098.38 592.797 1097.46 603.84C1097.23 606.491 1082.67 609.239 1061.5 609.239C1040.32 609.239 1025.77 606.491 1025.55 603.84C1024.62 592.81 1038.92 586.92 1044.73 584.873Z" fill="#438247"/>
<path d="M1113.7 514.347L1129.04 499.005C1127.87 498.74 1126.38 498.525 1124.58 498.525C1122.92 498.525 1120.99 498.706 1118.81 499.2C1118.5 499.272 1118.16 499.374 1117.77 499.512C1117.37 499.65 1116.92 499.824 1116.39 500.016C1115.34 500.4 1113.99 500.845 1112.31 501.119C1111.19 501.306 1109.92 501.416 1108.49 501.416C1104.02 501.416 1084.64 501.416 1079.86 501.416C1079.18 501.416 1078.79 501.416 1078.79 501.416H1078.71L1078.63 501.413C1077.44 501.352 1076.27 501.173 1075.11 500.94C1073.95 500.704 1072.8 500.415 1071.65 500.111C1069.37 499.499 1067.13 498.839 1065.11 498.432C1063.77 498.159 1062.54 497.998 1061.5 498C1060.72 498 1059.83 498.089 1058.87 498.248C1057.91 498.409 1056.88 498.642 1055.8 498.913C1053.65 499.456 1051.36 500.152 1049.05 500.686C1047.5 501.042 1045.95 501.329 1044.38 501.413L1044.29 501.416H1044.21C1044.21 501.416 1019.62 501.416 1014.52 501.416C1012.36 501.418 1010.59 501.163 1009.12 500.796C1007.66 500.433 1006.52 499.977 1005.64 499.66C1005.06 499.445 1004.6 499.294 1004.19 499.2C1002.01 498.706 1000.08 498.525 998.421 498.525C996.303 498.525 994.609 498.819 993.366 499.148L1008.56 514.347H1113.7Z" fill="#438247"/>
<path d="M1009.3 624.652L993.961 639.994C995.133 640.261 996.619 640.475 998.421 640.475C1000.08 640.475 1002.01 640.294 1004.19 639.8C1004.5 639.728 1004.84 639.626 1005.23 639.488C1005.63 639.352 1006.08 639.176 1006.61 638.984C1007.66 638.602 1009.01 638.152 1010.69 637.879C1011.81 637.694 1013.08 637.584 1014.52 637.584C1019.62 637.584 1044.21 637.584 1044.21 637.584H1044.29L1044.37 637.587C1045.56 637.648 1046.73 637.827 1047.89 638.06C1049.05 638.293 1050.2 638.585 1051.35 638.889C1053.63 639.501 1055.87 640.158 1057.89 640.568C1059.23 640.841 1060.46 641.003 1061.5 641C1062.28 641 1063.17 640.911 1064.13 640.749C1065.09 640.591 1066.12 640.358 1067.2 640.087C1069.35 639.547 1071.64 638.848 1073.95 638.314C1075.49 637.956 1077.05 637.671 1078.63 637.587L1078.71 637.585H1078.79C1078.79 637.585 1079.18 637.585 1079.86 637.585C1080.54 637.585 1081.52 637.585 1082.71 637.585C1085.1 637.585 1088.33 637.585 1091.73 637.585C1098.51 637.585 1105.93 637.585 1108.48 637.585C1110.64 637.582 1112.41 637.835 1113.88 638.201C1115.34 638.567 1116.48 639.023 1117.36 639.34C1117.94 639.555 1118.4 639.706 1118.81 639.8C1120.99 640.294 1122.92 640.476 1124.58 640.476C1126.38 640.476 1127.87 640.263 1129.04 639.997L1113.7 624.653H1009.3V624.652Z" fill="#438247"/>
<path d="M1129.58 586.792V586.71L1129.59 586.625C1129.65 585.443 1129.83 584.274 1130.06 583.112C1130.29 581.951 1130.58 580.796 1130.89 579.653C1131.5 577.37 1132.16 575.126 1132.57 573.11C1132.84 571.77 1133 570.536 1133 569.5C1133 568.725 1132.91 567.834 1132.75 566.872C1132.59 565.91 1132.36 564.877 1132.09 563.802C1131.54 561.653 1130.85 559.357 1130.31 557.047C1129.96 555.504 1129.67 553.953 1129.59 552.375L1129.58 552.293V552.206C1129.58 552.206 1129.58 527.617 1129.58 522.515C1129.58 520.355 1129.84 518.585 1130.2 517.119C1130.57 515.655 1131.02 514.517 1131.34 513.644C1131.55 513.063 1131.71 512.603 1131.8 512.191C1132.29 510.008 1132.48 508.084 1132.48 506.421C1132.48 504.302 1132.18 502.608 1131.85 501.365L1116.28 516.932V622.068L1131.85 637.633C1132.18 636.389 1132.48 634.701 1132.48 632.579C1132.48 630.916 1132.29 628.992 1131.8 626.809C1131.73 626.5 1131.63 626.165 1131.49 625.771C1131.35 625.374 1131.18 624.921 1130.98 624.392C1130.6 623.338 1130.15 621.989 1129.88 620.308C1129.69 619.19 1129.58 617.926 1129.58 616.485C1129.58 612.018 1129.58 592.636 1129.58 587.859C1129.58 587.178 1129.58 586.794 1129.58 586.792Z" fill="#438247"/>
<path d="M1006.72 517.674L991.008 501.961C990.74 503.133 990.525 504.619 990.525 506.42C990.525 508.084 990.706 510.008 991.202 512.19C991.272 512.5 991.374 512.835 991.512 513.229C991.648 513.626 991.822 514.079 992.016 514.606C992.4 515.663 992.848 517.011 993.122 518.69C993.306 519.811 993.416 521.074 993.416 522.515C993.416 527.617 993.416 552.206 993.416 552.206V552.29L993.413 552.375C993.352 553.557 993.173 554.726 992.937 555.888C992.707 557.049 992.413 558.203 992.111 559.347C991.499 561.627 990.839 563.874 990.432 565.89C990.159 567.23 989.998 568.463 990 569.5C990 570.275 990.089 571.166 990.251 572.128C990.409 573.09 990.642 574.124 990.913 575.195C991.453 577.347 992.152 579.642 992.686 581.953C993.045 583.496 993.329 585.046 993.413 586.625L993.416 586.712V586.791C993.416 586.791 993.416 587.178 993.416 587.859C993.416 588.542 993.416 589.522 993.416 590.714C993.416 593.099 993.416 596.331 993.416 599.726C993.416 606.509 993.416 613.932 993.416 616.485C993.418 618.645 993.163 620.415 992.799 621.881C992.433 623.345 991.975 624.484 991.66 625.356C991.446 625.937 991.295 626.397 991.202 626.812C990.706 628.992 990.525 630.916 990.525 632.579C990.525 634.698 990.819 636.391 991.149 637.633L1006.72 622.068L1006.72 517.674Z" fill="#438247"/>
<path d="M313.343 507C301.279 507 290.855 514.014 285.915 524.184C280.975 514.014 270.547 507 258.483 507C241.645 507 228 520.645 228 537.483C228 554.317 241.645 567.957 258.483 567.957H313.343C330.181 567.957 343.826 554.317 343.826 537.483C343.826 520.645 330.181 507 313.343 507ZM258.483 549.008C252.114 549.008 246.953 543.842 246.953 537.483C246.953 531.115 252.114 525.953 258.483 525.953C264.842 525.953 270.003 531.115 270.003 537.483C270.003 543.842 264.842 549.008 258.483 549.008ZM313.343 549.008C306.979 549.008 301.822 543.842 301.822 537.483C301.822 531.115 306.979 525.953 313.343 525.953C319.712 525.953 324.873 531.115 324.873 537.483C324.873 543.842 319.712 549.008 313.343 549.008Z" fill="#438247"/>
<path d="M325.951 574.92H243.875C240.603 574.92 237.958 577.565 237.958 580.832V628.075C237.958 631.342 240.603 633.992 243.875 633.992H325.951C329.223 633.992 331.868 631.342 331.868 628.075V580.832C331.868 577.565 329.223 574.92 325.951 574.92Z" fill="#438247"/>
<path d="M376.742 585.445C375.313 584.325 373.447 583.924 371.682 584.348L342.826 591.38C340.172 592.025 338.305 594.403 338.305 597.131V611.135C338.305 613.863 340.172 616.236 342.826 616.881L371.682 623.918C373.447 624.342 375.314 623.941 376.742 622.821C378.166 621.697 379 619.982 379 618.167V590.094C379 588.283 378.166 586.569 376.742 585.445Z" fill="#438247"/>
</svg>
