<svg width="1365" height="1061" viewBox="0 0 1365 1061" fill="none" xmlns="http://www.w3.org/2000/svg">
<path d="M815.197 620.956C813.426 617.12 810.442 614.079 806.837 612.076C803.232 610.074 799.021 609.057 794.579 609.057C786.789 609.057 778.254 612.18 770.695 618.855C764.399 624.412 758.843 632.444 754.826 643.136V584.341C754.826 579.185 750.631 575 745.48 575H614.366C609.21 575 605.019 579.185 605.019 584.341V640.907L585.238 633.456C582.229 632.32 579.117 631.787 576.061 631.787C570.782 631.787 565.678 633.384 561.395 636.306C557.107 639.213 553.636 643.449 551.674 648.657C550.539 651.665 550 654.783 550 657.833C550 663.102 551.608 668.207 554.519 672.5C557.425 676.772 561.668 680.254 566.874 682.216L584.427 688.82C583.348 689.344 582.306 689.944 581.31 690.622C577.258 693.381 573.951 697.401 572.103 702.336C571.018 705.176 570.51 708.129 570.51 711.025C570.51 716.028 572.02 720.855 574.794 724.927C577.556 728.979 581.572 732.266 586.512 734.14L587.812 734.628C587.333 734.905 586.851 735.208 586.399 735.521C582.322 738.269 579.03 742.28 577.176 747.235C576.097 750.075 575.589 753.023 575.589 755.919C575.589 760.931 577.104 765.749 579.878 769.806C582.62 773.883 586.636 777.17 591.565 779.018L592.859 779.511C592.356 779.794 591.878 780.097 591.401 780.425C587.344 783.167 584.037 787.188 582.188 792.118C581.104 794.979 580.602 797.926 580.602 800.828C580.602 805.814 582.117 810.662 584.879 814.708C587.642 818.765 591.663 822.072 596.598 823.921L613.452 830.269C616.292 831.337 619.244 831.861 622.14 831.861C626.187 831.861 630.105 830.844 633.608 829.016C638.944 832.662 645.106 836.103 652.218 839.009C663.86 843.755 677.947 847.056 694.744 847.446C695.807 847.472 696.849 847.482 697.897 847.482C714.248 847.492 727.908 844.371 739.257 838.691C747.762 834.439 754.93 828.759 760.928 822.058C769.945 812.008 776.35 799.714 781.181 786.27C785.999 772.856 789.27 758.266 791.914 743.431C791.981 743.123 792.326 741.592 792.875 739.102C795.052 729.298 800.511 704.732 805.595 682.013C808.132 670.659 810.581 659.766 812.482 651.426C813.421 647.257 814.233 643.724 814.849 641.099C815.152 639.79 815.408 638.701 815.609 637.879C815.799 637.068 815.948 636.483 815.989 636.344C816.667 633.966 817 631.645 817 629.406C817.005 626.379 816.378 623.508 815.197 620.956ZM570.161 673.464C566.802 672.2 564.122 669.993 562.247 667.241C560.373 664.488 559.346 661.201 559.346 657.832C559.346 655.876 559.684 653.899 560.419 651.942C561.688 648.583 563.89 645.898 566.648 644.023C569.39 642.159 572.687 641.122 576.061 641.122C578.007 641.122 579.99 641.461 581.942 642.196L605.02 650.885V686.59L570.161 673.464ZM582.527 719.672C580.806 717.13 579.857 714.126 579.857 711.024C579.857 709.227 580.175 707.419 580.842 705.622C582.003 702.541 584.036 700.07 586.563 698.35C589.084 696.635 592.109 695.68 595.195 695.68C596.987 695.68 598.8 696.004 600.592 696.666H600.613L605.019 698.34L617.467 703.023C619.768 703.886 621.709 705.232 623.281 706.916C623.799 707.471 624.287 708.087 624.739 708.744C626.454 711.261 627.389 714.29 627.389 717.372C627.389 719.169 627.07 720.987 626.398 722.794C625.673 724.741 624.605 726.415 623.281 727.837C622.489 728.68 621.637 729.408 620.677 730.06C618.156 731.781 615.151 732.715 612.049 732.715C610.252 732.715 608.439 732.397 606.647 731.719L605.019 731.102L589.798 725.392C586.706 724.216 584.242 722.198 582.527 719.672ZM587.585 764.559C585.874 762.028 584.94 759.008 584.94 755.916C584.94 754.124 585.248 752.312 585.926 750.525C587.082 747.423 589.1 744.979 591.647 743.233C594.163 741.518 597.193 740.573 600.274 740.573C601.846 740.573 603.437 740.809 605.019 741.348C605.245 741.405 605.45 741.497 605.676 741.569L622.531 747.921C622.792 748.014 623.034 748.112 623.281 748.225C626.023 749.421 628.231 751.306 629.797 753.622C631.518 756.163 632.468 759.173 632.468 762.275C632.468 764.072 632.155 765.88 631.487 767.677C631.487 767.677 631.461 767.708 631.461 767.728C630.305 770.799 628.262 773.244 625.766 774.948C623.239 776.664 620.209 777.613 617.129 777.613C615.336 777.613 613.523 777.3 611.731 776.633L605.02 774.106L594.878 770.27C591.775 769.109 589.325 767.091 587.585 764.559ZM636.694 811.943C636.632 812.148 636.561 812.374 636.488 812.58C635.328 815.661 633.304 818.126 630.778 819.841C628.246 821.561 625.242 822.522 622.14 822.522C620.343 822.522 618.535 822.204 616.738 821.526L599.884 815.174C596.782 814.019 594.333 811.975 592.612 809.453C590.897 806.937 589.942 803.912 589.942 800.826C589.942 799.029 590.261 797.195 590.938 795.423C592.093 792.327 594.127 789.852 596.648 788.137C599.093 786.468 602.03 785.539 605.019 785.487H605.286C607.073 785.487 608.891 785.785 610.683 786.468L611.417 786.741L627.532 792.81C630.634 793.981 633.089 796.009 634.824 798.531C636.544 801.068 637.485 804.077 637.485 807.184C637.485 808.749 637.238 810.351 636.694 811.943ZM625.838 739.176L624.497 738.672C624.985 738.395 625.457 738.092 625.93 737.779C630.002 735.037 633.289 731.01 635.143 726.081C636.227 723.225 636.735 720.267 636.735 717.372C636.735 712.369 635.22 707.553 632.452 703.496C630.192 700.152 627.07 697.323 623.281 695.402V603.028H736.935V766.793H641.357C641.634 765.283 641.808 763.774 641.808 762.274C641.808 757.268 640.299 752.445 637.536 748.368C634.773 744.321 630.752 741.024 625.838 739.176ZM686.465 785.974C686.465 789.584 683.538 792.521 679.923 792.521C676.312 792.521 673.386 789.584 673.386 785.974C673.386 782.369 676.312 779.437 679.923 779.437C683.538 779.437 686.465 782.369 686.465 785.974ZM807.007 633.784C806.857 634.287 806.688 634.991 806.426 636.069C805.481 640.033 803.53 648.568 801.136 659.188C793.968 691.027 782.783 741.477 782.783 741.477L782.762 741.569L782.742 741.672C780.43 754.654 777.653 767.277 773.857 778.821C771.018 787.489 767.603 795.547 763.423 802.716C757.137 813.485 749.187 822.235 738.686 828.382C728.164 834.519 714.982 838.134 697.895 838.144C696.93 838.144 695.954 838.124 694.958 838.103C679.265 837.733 666.344 834.683 655.75 830.359C650.302 828.13 645.474 825.563 641.202 822.841C642.875 820.797 644.262 818.466 645.228 815.867C645.721 814.583 646.091 813.253 646.337 811.944C646.527 811.025 646.65 810.105 646.717 809.191L745.479 810.074C750.63 810.074 754.826 805.889 754.826 800.738V676.073C756.52 670.106 758.708 662.413 761.542 652.46C765.178 639.694 770.868 631.17 776.881 625.85C782.9 620.534 789.294 618.398 794.578 618.398C798.609 618.398 801.947 619.635 804.16 621.53C805.264 622.48 806.117 623.579 806.713 624.873C807.309 626.162 807.652 627.647 807.658 629.402C807.658 630.713 807.463 632.166 807.007 633.784Z" fill="white"/>
<rect width="250" height="250" rx="125" transform="matrix(-0.994497 -0.104769 -0.104769 0.994497 820.816 238.192)" fill="white"/>
<path d="M756.062 411.212C759.351 406.245 755.329 399.701 749.413 400.393L674.004 409.214C670.164 409.663 667.416 413.14 667.865 416.98L678.305 506.239C679.063 512.718 687.491 514.73 691.094 509.291L756.062 411.212Z" fill="white"/>
<rect width="250" height="250" rx="125" transform="matrix(-1 0 0 1 428 450)" fill="white"/>
<path d="M310.524 663.184C304.786 661.585 303.54 654.005 308.465 650.654L371.231 607.938C374.427 605.763 378.782 606.591 380.957 609.787L431.518 684.082C435.188 689.475 430.136 696.514 423.852 694.763L310.524 663.184Z" fill="white"/>
<rect x="936" y="445" width="250" height="250" rx="125" fill="white"/>
<path d="M1056.76 667.184C1062.5 665.585 1063.74 658.005 1058.82 654.654L996.051 611.938C992.855 609.763 988.5 610.591 986.325 613.787L935.764 688.082C932.094 693.475 937.146 700.515 943.43 698.763L1056.76 667.184Z" fill="white"/>
<rect x="667" y="671.16" width="29.184" height="6.24" rx="0.96" fill="white"/>
<rect x="667" y="691.944" width="29.184" height="6.24" rx="0.96" fill="white"/>
<path d="M681.598 679.866C684.252 679.866 686.404 682.018 686.404 684.672C686.404 687.326 684.252 689.478 681.598 689.478C678.944 689.478 676.792 687.326 676.792 684.672C676.792 682.018 678.944 679.866 681.598 679.866ZM679.975 681.193C678.803 681.194 677.853 682.144 677.853 683.315C677.853 684.487 678.803 685.437 679.975 685.438C681.147 685.438 682.097 684.487 682.097 683.315C682.097 682.144 681.147 681.193 679.975 681.193Z" fill="white"/>
<rect x="686.296" y="669" width="6" height="6.48" rx="0.96" fill="white"/>
</svg>
