<svg xmlns="http://www.w3.org/2000/svg" viewBox="0 0 64 64" fill="none">
  <!-- Megaphone body -->
  <path d="M 10 24 L 10 40 L 25 40 L 40 50 L 40 14 L 25 24 Z" stroke="white" stroke-width="2.5" fill="white"/>

  <!-- Megaphone horn -->
  <path d="M 40 20 Q 50 18 54 20 Q 56 22 54 24 Q 50 26 40 24" stroke="white" stroke-width="2" fill="none"/>
  <path d="M 40 32 Q 50 30 54 32 Q 56 34 54 36 Q 50 38 40 36" stroke="white" stroke-width="2" fill="none"/>
  <path d="M 40 44 Q 50 42 54 44 Q 56 46 54 48 Q 50 50 40 48" stroke="white" stroke-width="2" fill="none"/>

  <!-- Sound waves -->
  <path d="M 54 26 Q 58 28 58 32 Q 58 36 54 38" stroke="white" stroke-width="2" fill="none" stroke-linecap="round"/>
  <path d="M 56 24 Q 62 28 62 32 Q 62 36 56 40" stroke="white" stroke-width="2" fill="none" stroke-linecap="round"/>

  <!-- Handle -->
  <path d="M 18 40 L 16 50 L 22 52 L 25 40" stroke="white" stroke-width="2" fill="white"/>
</svg>
