<svg width="432" height="499" viewBox="0 0 432 499" fill="none" xmlns="http://www.w3.org/2000/svg">
<path d="M61.4691 353.063C88.2821 353.063 110.016 331.344 110.016 304.532C110.016 277.72 88.2821 256 61.4691 256C34.6721 256 12.9221 277.719 12.9221 304.531C12.9221 331.343 34.6721 353.063 61.4691 353.063Z" fill="white"/>
<path d="M61.469 378.953C25.875 378.953 0 421 0 446.906C0 472.781 0 498.672 0 498.672H122.953C122.953 498.672 122.953 472.781 122.953 446.906C122.954 421 97.063 378.953 61.469 378.953Z" fill="white"/>
<path d="M215.766 353.063C242.563 353.063 264.297 331.344 264.297 304.532C264.297 277.72 242.563 256 215.766 256C188.953 256 167.235 277.719 167.235 304.531C167.235 331.343 188.954 353.063 215.766 353.063Z" fill="white"/>
<path d="M215.766 378.953C180.172 378.953 154.282 421 154.282 446.906C154.282 472.781 154.282 498.672 154.282 498.672H277.235C277.235 498.672 277.235 472.781 277.235 446.906C277.235 421 251.36 378.953 215.766 378.953Z" fill="white"/>
<path d="M370.047 353.063C396.86 353.063 418.594 331.344 418.594 304.532C418.594 277.72 396.86 256 370.047 256C343.234 256 321.516 277.719 321.516 304.531C321.516 331.343 343.235 353.063 370.047 353.063Z" fill="white"/>
<path d="M370.047 378.953C334.453 378.953 308.578 421 308.578 446.906C308.578 472.781 308.578 498.672 308.578 498.672H431.516C431.516 498.672 431.516 472.781 431.516 446.906C431.516 421 405.641 378.953 370.047 378.953Z" fill="white"/>
<path d="M71.7715 257.095C80.1616 258.907 87.7429 262.887 93.9023 268.419L67.4258 294.889C66.7292 292.267 66.1074 288.69 66.1074 284.216C66.1075 280.704 66.491 276.64 67.5391 272.036C67.7337 271.161 68.0533 270.189 68.5068 268.962C69.1716 267.12 70.1385 264.715 70.9111 261.624C71.2525 260.247 71.5481 258.742 71.7715 257.095ZM170.45 267.477C164.14 275.185 159.759 284.533 158.042 294.787H119.208C117.49 284.533 113.106 275.185 106.794 267.477H170.45ZM324.731 267.477C318.422 275.185 314.04 284.533 312.323 294.787H273.49C271.772 284.533 267.389 275.185 261.077 267.477H324.731ZM100.308 41.5489L100.307 260.729C92.5173 253.821 82.8722 248.96 72.2139 246.984V187.351L72.208 187.167C72.0299 183.833 71.4302 180.558 70.6729 177.3C69.5439 172.42 68.0683 167.573 66.9287 163.028C66.3566 160.765 65.8643 158.581 65.5293 156.55C65.1884 154.518 65 152.637 65 151C64.9947 148.811 65.3347 146.207 65.9121 143.376C66.7715 139.118 68.1653 134.373 69.457 129.559C70.0952 127.143 70.7171 124.706 71.2031 122.253C71.7003 119.8 72.0782 117.331 72.208 114.834L72.2148 114.655V51.7735C72.2148 48.7311 71.9821 46.0614 71.5928 43.6944C71.0147 40.1495 70.0682 37.3013 69.2578 35.0694C68.8474 33.9566 68.48 33 68.1934 32.1631C67.9014 31.3309 67.6853 30.6224 67.5391 29.9688C66.4909 25.3598 66.1074 21.2957 66.1074 17.7833C66.1074 13.9794 66.5621 10.8397 67.1289 8.3653L100.308 41.5489ZM364.567 7.10651C365.27 9.73249 365.892 13.3103 365.892 17.7842C365.892 21.2967 365.509 25.3609 364.466 29.9698C364.266 30.8397 363.942 31.8124 363.493 33.0391C362.823 34.8818 361.861 37.2862 361.088 40.377C360.321 43.473 359.78 47.213 359.786 51.7735V114.66L359.797 114.834C359.964 118.168 360.57 121.443 361.326 124.701C362.456 129.58 363.925 134.427 365.071 138.966C365.644 141.236 366.136 143.42 366.471 145.451C366.811 147.482 367 149.363 367 151C367 153.188 366.665 155.793 366.087 158.625C365.228 162.883 363.834 167.621 362.542 172.441C361.899 174.857 361.283 177.295 360.791 179.747C360.299 182.2 359.921 184.67 359.797 187.167L359.786 187.345V187.518C359.786 187.523 359.787 188.334 359.787 189.773V246.896C349.154 248.774 339.513 253.523 331.692 260.312V39.9815L364.567 7.10651ZM312.688 248.397H232.396C227.124 246.837 221.543 246 215.767 246C209.987 246 204.404 246.837 199.131 248.397H119.312V53.6094H312.688V248.397ZM232.8 73.5059C223.484 57.2087 192.278 77.2295 182.497 75.8301C182.497 81.3944 184.807 85.5815 184.825 85.6153C181.421 92.0669 182.734 104.938 183.696 111.45C183.137 111.445 176.289 111.512 179.195 121.695C182.038 131.654 184.312 133.935 188.295 135.357C190.002 145.029 192.878 153.561 196.66 157.771V169.438C196.66 173.879 186.528 181.363 180.579 183.465C168.307 187.788 138.117 200.228 140.067 223.523C140.533 229.122 171.275 234.925 215.995 234.925C260.715 234.925 291.467 229.122 291.938 223.523C293.878 200.201 263.624 188.032 251.411 183.466C244.878 181.023 235.34 173.879 235.34 169.438V157.772C239.122 153.562 241.986 145.029 243.699 135.357C247.687 133.935 249.957 131.655 252.805 121.696C255.817 111.136 248.321 111.448 248.255 111.451C254.383 91.1653 246.314 72.1068 232.8 73.5059ZM216 6.12603e-05C218.188 -0.00524715 220.794 0.334714 223.626 0.912171C227.884 1.77156 232.622 3.16539 237.442 4.45709C239.858 5.09999 242.295 5.71143 244.748 6.20807C247.201 6.69997 249.671 7.07828 252.167 7.20807L252.346 7.21393H315.228C318.265 7.21393 320.94 6.98158 323.307 6.58698C326.851 6.00892 329.699 5.06828 331.925 4.25787C333.043 3.85206 334 3.4848 334.838 3.19342C335.67 2.90209 336.377 2.68522 337.031 2.53424C341.641 1.49146 345.704 1.10849 349.216 1.10846C353.02 1.10846 356.16 1.56158 358.63 2.12311L326.234 34.5235H104.203L72.1074 2.42584C74.7334 1.72924 78.3112 1.10748 82.7852 1.10748C86.2976 1.1075 90.3617 1.49142 94.9707 2.53424C95.8353 2.7336 96.8133 3.05239 98.04 3.50592C99.8827 4.17598 102.292 5.13854 105.378 5.90533C108.474 6.67861 112.214 7.21865 116.774 7.21393H179.656L179.834 7.20807C183.168 7.02994 186.443 6.42437 189.701 5.67291C194.58 4.54397 199.428 3.07424 203.972 1.92877C206.236 1.35603 208.42 0.863839 210.451 0.523499C212.482 0.188517 214.363 6.12603e-05 216 6.12603e-05Z" fill="white"/>
</svg>
