<svg width="366" height="512" viewBox="0 0 366 512" fill="none" xmlns="http://www.w3.org/2000/svg">
<path d="M234.027 96.6217C260.276 89.9217 276.115 63.1847 269.399 36.9197C262.698 10.6707 235.969 -5.16932 209.705 1.53968C183.448 8.25568 167.624 34.9777 174.333 61.2347C181.041 87.4987 207.77 103.331 234.027 96.6217Z" fill="white"/>
<path d="M279.457 222.956L275.429 265.219C282.024 269.522 288.185 274.441 293.751 279.993C314.243 300.515 326.861 328.661 326.869 359.943C326.861 391.226 314.243 419.371 293.751 439.893C273.229 460.386 245.083 472.995 213.801 473.011C182.519 472.995 154.373 460.386 133.851 439.893C119.291 425.31 108.82 406.843 103.908 386.177L81.7258 435.096C107.899 480.992 157.184 511.985 213.802 512C297.788 511.984 365.844 443.929 365.86 359.942C365.851 299.51 330.517 247.484 279.457 222.956Z" fill="white"/>
<path d="M180.583 350.668C223.548 350.196 243.857 332.156 248.266 290.593L260.725 160.079C262.735 138.072 249.469 118.76 227.447 116.75C213.336 115.456 198.205 122.598 189.319 131.972L128.025 192.291L63.8988 197.683C53.5878 198.551 45.6678 207.163 45.6678 217.505V218.701C45.6678 229.682 54.5779 238.591 65.5589 238.591H141.192L175.589 213.202L169.84 276.849L86.0589 282.963C61.7439 283.923 51.0219 293.67 41.8689 315.51L2.33085 424.138C-3.65515 437.45 2.28485 453.121 15.6118 459.107C28.9528 465.1 44.6098 459.153 50.5868 445.833L95.1508 350.667H180.583V350.668Z" fill="white"/>
</svg>
