<svg width="512" height="486" viewBox="0 0 512 486" fill="none" xmlns="http://www.w3.org/2000/svg">
<path d="M101.703 339.735C128.516 339.735 150.25 318.016 150.25 291.204C150.25 264.392 128.516 242.672 101.703 242.672C74.906 242.672 53.156 264.391 53.156 291.203C53.156 318.015 74.906 339.735 101.703 339.735Z" fill="white"/>
<path d="M101.703 365.625C66.1089 365.625 40.2339 407.672 40.2339 433.578C40.2339 459.453 40.2339 485.344 40.2339 485.344H163.187C163.187 485.344 163.187 459.453 163.187 433.578C163.188 407.672 137.297 365.625 101.703 365.625Z" fill="white"/>
<path d="M256 339.735C282.797 339.735 304.531 318.016 304.531 291.204C304.531 264.392 282.797 242.672 256 242.672C229.187 242.672 207.469 264.391 207.469 291.203C207.469 318.015 229.188 339.735 256 339.735Z" fill="white"/>
<path d="M256 365.625C220.406 365.625 194.516 407.672 194.516 433.578C194.516 459.453 194.516 485.344 194.516 485.344H317.469C317.469 485.344 317.469 459.453 317.469 433.578C317.469 407.672 291.594 365.625 256 365.625Z" fill="white"/>
<path d="M410.281 339.735C437.094 339.735 458.828 318.016 458.828 291.204C458.828 264.392 437.094 242.672 410.281 242.672C383.468 242.672 361.75 264.391 361.75 291.203C361.75 318.015 383.469 339.735 410.281 339.735Z" fill="white"/>
<path d="M0 0V285.859H37.438C40.172 252.766 67.922 226.672 101.703 226.672C135.484 226.672 163.234 252.766 165.969 285.86H191.735C194.469 252.766 222.219 226.672 256 226.672C289.781 226.672 317.531 252.766 320.25 285.86H346.016C348.75 252.766 376.5 226.672 410.281 226.672C444.062 226.672 471.812 252.766 474.562 285.86H512V0H0Z" fill="white"/>
<path d="M410.281 365.625C374.687 365.625 348.812 407.672 348.812 433.578C348.812 459.453 348.812 485.344 348.812 485.344H471.75C471.75 485.344 471.75 459.453 471.75 433.578C471.75 407.672 445.875 365.625 410.281 365.625Z" fill="white"/>
</svg>
