<svg width="377" height="512" viewBox="0 0 377 512" fill="none" xmlns="http://www.w3.org/2000/svg">
<path d="M184.181 94.952C210.399 94.952 231.653 73.698 231.653 47.471C231.653 21.254 210.399 0 184.181 0C157.954 0 136.7 21.254 136.7 47.472C136.7 73.698 157.954 94.952 184.181 94.952Z" fill="white"/>
<path d="M313.245 236.772L258.868 208.183L235.948 161.096C224.392 137.342 202.25 120.484 176.269 115.657L152.689 111.271C140.83 109.074 128.578 110.657 117.662 115.813L48.9919 148.239C41.3639 151.838 35.3379 158.102 32.0229 165.84L1.48391 237.148C-0.457093 241.681 -0.494093 246.8 1.37391 251.35C3.24191 255.911 6.86791 259.537 11.4199 261.405L12.1059 261.68C21.2079 265.406 31.6379 261.296 35.7599 252.366L63.7899 191.662L108.158 177.322L64.1939 372.712L21.3739 479.477C19.0019 485.393 19.2679 492.032 22.0889 497.737C24.9089 503.451 30.0269 507.691 36.1629 509.404L38.0129 509.916C47.8569 512.663 58.3059 508.405 63.4329 499.559L114.184 411.896L144.421 351.898L199.603 412.794L240.363 499.148C244.959 508.882 255.829 513.982 266.25 511.281L266.708 511.153C272.761 509.587 277.871 505.567 280.838 500.063C283.778 494.559 284.308 488.067 282.276 482.16L252.286 395.23C248.074 383.005 241.829 371.586 233.816 361.44L185.117 297.046L202.983 204.126L226.041 233.42C228.889 237.046 232.579 239.94 236.782 241.846L297.44 269.234C301.827 271.213 306.827 271.332 311.304 269.564C315.783 267.796 319.354 264.29 321.204 259.848L321.396 259.381C324.947 250.874 321.404 241.067 313.245 236.772Z" fill="white"/>
<rect x="298.727" y="268.946" width="12" height="129" transform="rotate(-15 298.727 268.946)" fill="white"/>
<rect x="332.632" y="395.482" width="12" height="89" transform="rotate(-15 332.632 395.482)" fill="white"/>
<rect x="355.478" y="484.606" width="14" height="28" transform="rotate(-15 355.478 484.606)" fill="white"/>
<path d="M281.419 208.661C280.296 204.468 282.784 200.158 286.977 199.034C291.17 197.911 295.48 200.399 296.603 204.592L312.945 265.581L297.761 269.649L281.419 208.661Z" fill="white"/>
</svg>
